<svg width="21" height="18" viewBox="0 0 21 18" fill="none" xmlns="http://www.w3.org/2000/svg">
<path fill-rule="evenodd" clip-rule="evenodd" d="M1.73001 0H19.55C19.9955 0 20.36 0.3375 20.36 0.75V17.25C20.36 17.6625 19.9955 18 19.55 18H1.73001C1.28451 18 0.920013 17.6625 0.920013 17.25V0.75C0.920013 0.3375 1.28451 0 1.73001 0ZM3.7955 15.3375H6.67101V6.75H3.7955V15.3375ZM5.2535 5.58749C4.322 5.58749 3.593 4.91249 3.593 4.05C3.593 3.1875 4.322 2.5125 5.2535 2.5125C6.185 2.5125 6.914 3.1875 6.914 4.05C6.914 4.87499 6.185 5.58749 5.2535 5.58749ZM14.609 15.3375H17.444V10.6125C17.444 8.28749 16.9175 6.52499 14.0015 6.52499C12.6245 6.52499 11.6525 7.23749 11.288 7.91249H11.2475V6.74999H8.4935V15.3375H11.369V11.1C11.369 9.97499 11.612 8.88749 13.1105 8.88749C14.609 8.88749 14.609 10.1625 14.609 11.175V15.3375Z" fill="#7D818D"/>
</svg>
