<svg width="20" height="18" viewBox="0 0 20 18" fill="none" xmlns="http://www.w3.org/2000/svg">
<path fill-rule="evenodd" clip-rule="evenodd" d="M6.27252 0.054C7.30932 0.0105 7.64021 0 10.28 0C12.9198 0 13.2507 0.0105 14.2875 0.054C15.8678 0.12075 17.2549 0.47925 18.3687 1.5105C19.4828 2.54212 19.8696 3.82687 19.9417 5.28937C19.9887 6.24937 20 6.55575 20 9C20 11.4443 19.9887 11.7506 19.9417 12.7106C19.8696 14.1739 19.4824 15.4583 18.3687 16.4895C17.2545 17.5211 15.8666 17.8792 14.2875 17.946C13.2507 17.9895 12.9198 18 10.28 18C7.64021 18 7.30932 17.9895 6.27252 17.946C4.69221 17.8792 3.30509 17.5208 2.19134 16.4895C1.07718 15.4579 0.690408 14.1731 0.618318 12.7106C0.571338 11.7506 0.559998 11.4443 0.559998 9C0.559998 6.55575 0.571338 6.24937 0.618318 5.28937C0.690408 3.82612 1.07759 2.54175 2.19134 1.5105C3.30549 0.478875 4.69302 0.12075 6.27252 0.054ZM14.2077 1.67401C13.1826 1.63051 12.8752 1.62151 10.28 1.62151C7.68476 1.62151 7.37736 1.63088 6.35231 1.67401C5.24625 1.72088 4.21958 1.92601 3.42983 2.65725C2.64008 3.3885 2.41854 4.33913 2.36792 5.36325C2.32094 6.31238 2.31122 6.597 2.31122 9C2.31122 11.403 2.32134 11.6876 2.36792 12.6367C2.41854 13.6609 2.64008 14.6115 3.42983 15.3427C4.21958 16.074 5.24625 16.2791 6.35231 16.326C7.37696 16.3695 7.68435 16.3785 10.28 16.3785C12.8756 16.3785 13.183 16.3691 14.2077 16.326C15.3137 16.2791 16.3404 16.074 17.1302 15.3427C17.9199 14.6115 18.1415 13.6609 18.1921 12.6367C18.2391 11.6876 18.2488 11.403 18.2488 9C18.2488 6.597 18.2387 6.31238 18.1921 5.36325C18.1415 4.33913 17.9199 3.3885 17.1302 2.65725C16.3404 1.92601 15.3137 1.72088 14.2077 1.67401Z" fill="#7D818D"/>
<path fill-rule="evenodd" clip-rule="evenodd" d="M5.86182 9.40918C5.86182 6.92403 8.03746 4.90918 10.7218 4.90918C13.4062 4.90918 15.5818 6.92366 15.5818 9.40918C15.5818 11.8947 13.4062 13.9092 10.7218 13.9092C8.03746 13.9092 5.86182 11.8943 5.86182 9.40918ZM7.56699 9.40918C7.56699 11.0224 8.97956 12.3303 10.7218 12.3303C12.4641 12.3303 13.8766 11.0224 13.8766 9.40918C13.8766 7.79599 12.4641 6.48805 10.7218 6.48805C8.97956 6.48805 7.56699 7.79599 7.56699 9.40918Z" fill="#7D818D"/>
<ellipse cx="15.14" cy="4.50023" rx="1.32545" ry="1.22728" fill="#7D818D"/>
</svg>
