<svg width="19" height="15" viewBox="0 0 19 15" fill="none" xmlns="http://www.w3.org/2000/svg">
<path fill-rule="evenodd" clip-rule="evenodd" d="M18.36 1.73969C17.6715 2.04897 16.9447 2.24227 16.1798 2.35825C16.9447 1.89433 17.5568 1.15979 17.8245 0.270619C17.0978 0.695876 16.2945 1.00515 15.4148 1.19845C14.7263 0.463918 13.7318 0 12.6608 0C10.5953 0 8.91225 1.70103 8.91225 3.78866C8.91225 4.09794 8.9505 4.36856 9.027 4.63918C5.92875 4.48454 3.1365 2.9768 1.26225 0.657216C0.95625 1.23711 0.765 1.85567 0.765 2.55155C0.765 3.86598 1.41525 5.02577 2.448 5.72165C1.836 5.68299 1.26225 5.52835 0.72675 5.25773V5.29639C0.72675 7.15206 2.02725 8.69845 3.7485 9.04639C3.4425 9.12371 3.09825 9.16237 2.754 9.16237C2.5245 9.16237 2.25675 9.12371 2.02725 9.08505C2.5245 10.5928 3.9015 11.7139 5.54625 11.7139C4.24575 12.7191 2.63925 13.3376 0.87975 13.3376C0.57375 13.3376 0.26775 13.3376 0 13.299C1.683 14.3814 3.63375 15 5.77575 15C12.699 15 16.4858 9.20103 16.4858 4.17526C16.4858 4.02062 16.4858 3.82732 16.4858 3.67268C17.2125 3.1701 17.8628 2.51289 18.36 1.73969Z" fill="#68D585"/>
</svg>
