<svg width="20" height="18" viewBox="0 0 20 18" fill="none" xmlns="http://www.w3.org/2000/svg">
<path d="M18.91 0H1.09C0.642648 0 0.279999 0.335786 0.279999 0.75V17.25C0.279999 17.6642 0.642648 18 1.09 18H10.6635V11.0295H8.13011V8.3129H10.6635V6.30952C10.6635 3.9846 12.1971 2.71865 14.437 2.71865C15.5099 2.71865 16.4321 2.79261 16.7008 2.82567V5.25534L15.1473 5.25599C13.9291 5.25599 13.6932 5.79198 13.6932 6.5785V8.3129H16.5985L16.2202 11.0295H13.6932V18H18.91C19.3573 18 19.72 17.6642 19.72 17.25V0.75C19.72 0.335786 19.3573 0 18.91 0Z" fill="#7D818D"/>
</svg>
